<svg width="17" height="15" viewBox="0 0 17 15" fill="none" xmlns="http://www.w3.org/2000/svg">
<mask id="path-1-inside-1_8302_19116" fill="white">
<path d="M8.5 2.14286C9.4265 1.10062 10.846 0 12.325 0C14.9473 0 17 1.42857 17 4.49591C17 7.58174 14.413 9.28571 9.97826 13.5714L8.5 15L7.02174 13.5714C2.95652 10 0 7.14286 0 4.49591C0 1.51976 2.05275 0 4.675 0C6.154 0 7.5735 1.10062 8.5 2.14286Z"/>
</mask>
<path d="M8.5 2.14286L7.5284 3.00657L8.5 4.09953L9.4716 3.00657L8.5 2.14286ZM7.02174 13.5714L7.92513 12.6366L7.90294 12.6152L7.87975 12.5948L7.02174 13.5714ZM8.5 15L7.59661 15.9348L8.5 16.8078L9.40339 15.9348L8.5 15ZM9.97826 13.5714L10.8817 14.5062L10.8817 14.5062L9.97826 13.5714ZM12.325 -1.3C11.2659 -1.3 10.3042 -0.909075 9.52153 -0.425048C8.73363 0.06223 8.0531 0.688901 7.5284 1.27915L9.4716 3.00657C9.8734 2.55458 10.3659 2.10982 10.8891 1.78623C11.4176 1.45939 11.9051 1.3 12.325 1.3V-1.3ZM9.4716 1.27915C8.9469 0.688901 8.26637 0.0622301 7.47847 -0.425048C6.69583 -0.909075 5.73406 -1.3 4.675 -1.3V1.3C5.09494 1.3 5.58242 1.45939 6.1109 1.78623C6.63413 2.10982 7.1266 2.55458 7.5284 3.00657L9.4716 1.27915ZM4.675 -1.3C3.1222 -1.3 1.61931 -0.84909 0.487635 0.162805C-0.66531 1.19372 -1.3 2.68928 -1.3 4.49591H1.3C1.3 3.32639 1.69169 2.57399 2.22068 2.10099C2.77094 1.60897 3.60555 1.3 4.675 1.3V-1.3ZM-1.3 4.49591C-1.3 6.29222 -0.308661 7.96893 0.98914 9.52092C2.30909 11.0994 4.13668 12.7672 6.16373 14.5481L7.87975 12.5948C5.84158 10.8042 4.1583 9.25773 2.98369 7.85306C1.78692 6.42189 1.3 5.34655 1.3 4.49591H-1.3ZM6.11835 14.5062L7.59661 15.9348L9.40339 14.0652L7.92513 12.6366L6.11835 14.5062ZM9.40339 15.9348L10.8817 14.5062L9.07487 12.6366L7.59661 14.0652L9.40339 15.9348ZM10.8817 14.5062C13.0084 12.451 14.8825 10.8399 16.1226 9.44874C17.4315 7.98039 18.3 6.48605 18.3 4.49591H15.7C15.7 5.5916 15.2751 6.49216 14.1817 7.71869C13.0196 9.02239 11.3829 10.4062 9.07487 12.6366L10.8817 14.5062ZM18.3 4.49591C18.3 2.65344 17.6713 1.14915 16.505 0.122068C15.3646 -0.882151 13.8587 -1.3 12.325 -1.3V1.3C13.4136 1.3 14.2451 1.59644 14.7867 2.07334C15.3023 2.52738 15.7 3.27104 15.7 4.49591H18.3Z" fill="url(#paint0_linear_8302_19116)" mask="url(#path-1-inside-1_8302_19116)"/>
<defs>
<linearGradient id="paint0_linear_8302_19116" x1="17" y1="0" x2="2.11673" y2="16.8677" gradientUnits="userSpaceOnUse">
<stop stop-color="#295283"/>
<stop offset="1" stop-color="#352983"/>
</linearGradient>
</defs>
</svg>
