<svg width="21" height="19" viewBox="0 0 21 19" fill="none" xmlns="http://www.w3.org/2000/svg">
<mask id="path-1-inside-1_8266_29453" fill="white">
<path d="M10.5 2.71429C11.6445 1.39412 13.398 0 15.225 0C18.4643 0 21 1.80952 21 5.69482C21 9.60354 17.8043 11.7619 12.3261 17.1905L10.5 19L8.67391 17.1905C3.65217 12.6667 0 9.04762 0 5.69482C0 1.92502 2.53575 0 5.775 0C7.602 0 9.3555 1.39412 10.5 2.71429Z"/>
</mask>
<path d="M10.5 2.71429L9.36662 3.69686L10.5 5.0042L11.6334 3.69686L10.5 2.71429ZM8.67391 17.1905L9.72973 16.125L9.70439 16.0999L9.67788 16.076L8.67391 17.1905ZM10.5 19L9.44418 20.0655L10.5 21.1117L11.5558 20.0655L10.5 19ZM12.3261 17.1905L11.2703 16.125H11.2703L12.3261 17.1905ZM15.225 -1.5C13.9332 -1.5 12.7594 -1.01103 11.8032 -0.404673C10.8404 0.205899 10.0083 0.991554 9.36662 1.73171L11.6334 3.69686C12.1362 3.11685 12.7531 2.54537 13.4099 2.12884C14.0734 1.70809 14.6898 1.5 15.225 1.5V-1.5ZM11.6334 1.73171C10.9917 0.991554 10.1596 0.205899 9.19676 -0.404673C8.24061 -1.01103 7.06678 -1.5 5.775 -1.5V1.5C6.31022 1.5 6.92664 1.70809 7.59011 2.12884C8.24693 2.54537 8.86379 3.11685 9.36662 3.69686L11.6334 1.73171ZM5.775 -1.5C3.86684 -1.5 2.03252 -0.931151 0.659075 0.328116C-0.734646 1.60597 -1.5 3.45473 -1.5 5.69482H1.5C1.5 4.16512 2.00252 3.16646 2.68649 2.53936C3.39073 1.89366 4.44391 1.5 5.775 1.5V-1.5ZM-1.5 5.69482C-1.5 7.90392 -0.309138 9.98894 1.29134 11.9515C2.91456 13.942 5.16516 16.0485 7.66995 18.3049L9.67788 16.076C7.16093 13.8086 5.07457 11.8438 3.61626 10.0555C2.13523 8.23942 1.5 6.83852 1.5 5.69482H-1.5ZM7.6181 18.256L9.44418 20.0655L11.5558 17.9345L9.72973 16.125L7.6181 18.256ZM11.5558 20.0655L13.3819 18.256L11.2703 16.125L9.44418 17.9345L11.5558 20.0655ZM13.3819 18.256C16.0178 15.644 18.3215 13.6145 19.8494 11.8568C21.4573 10.0072 22.5 8.15237 22.5 5.69482H19.5C19.5 7.14599 18.9449 8.32467 17.5853 9.8886C16.1459 11.5444 14.1127 13.3084 11.2703 16.125L13.3819 18.256ZM22.5 5.69482C22.5 3.4082 21.7414 1.54934 20.3325 0.277128C18.9486 -0.972453 17.1106 -1.5 15.225 -1.5V1.5C16.5787 1.5 17.6281 1.87722 18.3219 2.50372C18.9907 3.1076 19.5 4.09615 19.5 5.69482H22.5Z" fill="url(#paint0_linear_8266_29453)" mask="url(#path-1-inside-1_8266_29453)"/>
<defs>
<linearGradient id="paint0_linear_8266_29453" x1="25.3349" y1="-3.83486" x2="-10.231" y2="31.6988" gradientUnits="userSpaceOnUse">
<stop stop-color="#FF4C1F"/>
<stop offset="1" stop-color="#FF1F62"/>
</linearGradient>
</defs>
</svg>
