<svg width="15" height="19" viewBox="0 0 15 19" fill="none" xmlns="http://www.w3.org/2000/svg">
<path d="M3.07672 5.71563V2C3.07672 1.44772 3.52444 1 4.07672 1H11.0854C11.6377 1 12.0854 1.44772 12.0854 2V5.71563M9.0001 10.0425L9.80658 10.2113C10.2224 10.2984 10.3471 10.8316 10.0129 11.094L9.45846 11.5293C9.31138 11.6448 9.24103 11.8327 9.27613 12.0164L9.41296 12.7327C9.49494 13.1618 9.02583 13.4823 8.65588 13.2499L7.84701 12.7418C7.68442 12.6397 7.47769 12.6397 7.3151 12.7418L6.50623 13.2499C6.13628 13.4823 5.66717 13.1618 5.74915 12.7327L5.88598 12.0164C5.92107 11.8327 5.85073 11.6448 5.70365 11.5293L5.14921 11.094C4.81505 10.8316 4.93968 10.2984 5.35553 10.2113L6.16201 10.0425C6.28459 10.0168 6.39307 9.94608 6.466 9.84428L7.17459 8.85517C7.37405 8.57675 7.78806 8.57675 7.98752 8.85517L8.69611 9.84428C8.76904 9.94608 8.87752 10.0168 9.0001 10.0425ZM14.1328 7.57334V13.7488C14.1328 14.0862 13.9627 14.4008 13.6803 14.5856L8.12858 18.2182C7.796 18.4358 7.36611 18.4358 7.03353 18.2182L1.48177 14.5856C1.19944 14.4008 1.0293 14.0862 1.0293 13.7488V7.57334C1.0293 7.21915 1.21666 6.89138 1.52186 6.71165L7.07362 3.44229C7.38678 3.25788 7.77533 3.25788 8.08849 3.44229L13.6402 6.71165C13.9455 6.89138 14.1328 7.21915 14.1328 7.57334Z" stroke="url(#paint0_linear_8592_16359)" stroke-width="1.2"/>
<defs>
<linearGradient id="paint0_linear_8592_16359" x1="14.1328" y1="1" x2="-2.71199" y2="13.5581" gradientUnits="userSpaceOnUse">
<stop stop-color="#295283"/>
<stop offset="1" stop-color="#352983"/>
</linearGradient>
</defs>
</svg>
