<?xml version="1.0" encoding="utf-8"?>
<!-- Generator: Adobe Illustrator 25.4.1, SVG Export Plug-In . SVG Version: 6.00 Build 0)  -->
<svg version="1.1" id="Слой_1" xmlns="http://www.w3.org/2000/svg" xmlns:xlink="http://www.w3.org/1999/xlink" x="0px" y="0px"
	 viewBox="0 0 22.1 15.4" style="enable-background:new 0 0 22.1 15.4;" xml:space="preserve">
<style type="text/css">
	.st0{fill:none;stroke:url(#SVGID_1_);stroke-width:1.3;}
	.st1{fill:#FFF4EB;stroke:url(#SVGID_00000100364312450008697520000006235751844065482899_);stroke-width:1.3;}
</style>
<linearGradient id="SVGID_1_" gradientUnits="userSpaceOnUse" x1="22.5825" y1="1070.7251" x2="11.0416" y2="1083.0396" gradientTransform="matrix(1 0 0 1 0 -1066)">
	<stop  offset="0" style="stop-color:#295283"/>
	<stop  offset="1" style="stop-color:#352983"/>
</linearGradient>
<path class="st0" d="M13.1,6.8c0-1.2,1-2.2,2.4-2.2s2.4,1,2.4,2.2S16.9,9,15.5,9S13.1,8,13.1,6.8z M12.6,11.5c1-0.3,2.1-0.4,2.9-0.4
	c1,0,2.4,0.2,3.6,0.7c0.6,0.2,1.1,0.5,1.4,0.8s0.5,0.5,0.5,0.8v1.5h-6.4H10v-1.5c0-0.3,0.2-0.6,0.7-0.9C11.1,12,11.8,11.7,12.6,11.5
	z"/>
<linearGradient id="SVGID_00000044899075744012358240000011577706414663765915_" gradientUnits="userSpaceOnUse" x1="15.9987" y1="1068.4904" x2="2.0207" y2="1083.2755" gradientTransform="matrix(1 0 0 1 0 -1066)">
	<stop  offset="0" style="stop-color:#295283"/>
	<stop  offset="1" style="stop-color:#352983"/>
</linearGradient>
<path style="fill:#FFF4EB;stroke:url(#SVGID_00000044899075744012358240000011577706414663765915_);stroke-width:1.3;" d="M4.4,4.9
	c0-1.5,1.3-2.8,3.1-2.8s3.1,1.3,3.1,2.8S9.3,7.7,7.5,7.7S4.4,6.5,4.4,4.9z M0.7,12.8c0-0.3,0.2-0.7,0.6-1c0.4-0.4,1-0.7,1.8-1
	C4.6,10.2,6.3,10,7.5,10s2.9,0.3,4.4,0.8c0.7,0.3,1.3,0.6,1.8,1c0.4,0.4,0.6,0.7,0.6,1v2H0.7V12.8z"/>
</svg>
