<svg width="24" height="23" viewBox="0 0 24 23" fill="none" xmlns="http://www.w3.org/2000/svg">
<path d="M6.95 5.75C6.95 3.13549 9.17116 0.95 12 0.95C14.8288 0.95 17.05 3.13549 17.05 5.75C17.05 8.35807 14.8281 10.55 12 10.55C9.17195 10.55 6.95 8.35807 6.95 5.75ZM0.95 18.6875C0.95 18.0943 1.25213 17.4947 1.94216 16.8846C2.6369 16.2702 3.64648 15.7209 4.84103 15.2629C7.22997 14.347 10.1145 13.8875 12 13.8875C13.8855 13.8875 16.77 14.347 19.159 15.2629C20.3535 15.7209 21.3631 16.2702 22.0578 16.8846C22.7479 17.4947 23.05 18.0943 23.05 18.6875V22.05H0.95V18.6875Z" stroke="url(#paint0_linear_8302_19115)" stroke-width="1.9"/>
<defs>
<linearGradient id="paint0_linear_8302_19115" x1="24" y1="0" x2="1.02081" y2="23.9783" gradientUnits="userSpaceOnUse">
<stop stop-color="#295283"/>
<stop offset="1" stop-color="#352983"/>
</linearGradient>
</defs>
</svg>
