<svg width="58" height="27" viewBox="0 0 58 27" fill="none" xmlns="http://www.w3.org/2000/svg">
<path fill-rule="evenodd" clip-rule="evenodd" d="M28.9338 20.518L23.8107 23.3094C23.1187 23.6865 22.2628 23.4107 21.899 22.6936C21.7541 22.408 21.7041 22.0808 21.7567 21.7628L22.7351 15.8506C22.8139 15.3747 22.6617 14.889 22.328 14.552L18.1834 10.3649C17.6235 9.79933 17.6121 8.87048 18.1578 8.29026C18.3751 8.05922 18.6598 7.90886 18.9679 7.86246L24.6957 6.99987C25.1568 6.93044 25.5553 6.63031 25.7615 6.1973L28.3231 0.818147C28.6691 0.0915532 29.5179 -0.206768 30.219 0.151827C30.4982 0.294622 30.7241 0.528813 30.8619 0.818147L33.4235 6.1973C33.6297 6.63031 34.0282 6.93044 34.4893 6.99987L40.2171 7.86246C40.9908 7.97897 41.5269 8.72345 41.4144 9.52529C41.3697 9.84459 41.2246 10.1397 41.0017 10.3649L36.857 14.552C36.5233 14.889 36.3711 15.3747 36.4499 15.8506L37.4283 21.7628C37.5604 22.5614 37.0429 23.3199 36.2724 23.4568C35.9655 23.5114 35.6499 23.4596 35.3743 23.3094L30.2512 20.518C29.8388 20.2933 29.3462 20.2933 28.9338 20.518ZM27.5959 19.0433C28.8418 18.3539 30.3434 18.3539 31.5892 19.0433L35.3613 21.1304L34.6116 16.53C34.3893 15.1658 34.8205 13.7691 35.7815 12.7832L39.062 9.41776L34.634 8.74056C33.2478 8.52858 32.0678 7.62621 31.469 6.34936L29.5926 2.34783L27.7162 6.34936C27.1174 7.62621 25.9373 8.52858 24.5512 8.74056L20.1232 9.41776L23.4037 12.7832C24.3647 13.7691 24.7959 15.1658 24.5736 16.53L23.8239 21.1304L27.5959 19.0433Z" fill="url(#paint0_linear_8592_14205)"/>
<path fill-rule="evenodd" clip-rule="evenodd" d="M8.94233 24.6318L4.84385 26.865C4.29025 27.1666 3.60552 26.946 3.31448 26.3723C3.19858 26.1438 3.15859 25.8821 3.20069 25.6277L3.98343 20.8979C4.04643 20.5171 3.92464 20.1286 3.65773 19.859L0.341995 16.5093C-0.105881 16.0569 -0.115045 15.3138 0.321526 14.8496C0.495371 14.6648 0.72316 14.5445 0.969628 14.5074L5.55186 13.8173C5.92072 13.7618 6.23959 13.5217 6.40455 13.1752L8.45378 8.87192C8.73059 8.29065 9.40965 8.05199 9.97051 8.33887C10.1938 8.4531 10.3746 8.64046 10.4848 8.87192L12.5341 13.1752C12.699 13.5217 13.0179 13.7618 13.3868 13.8173L17.969 14.5074C18.5879 14.6006 19.0168 15.1962 18.9269 15.8376C18.891 16.0931 18.775 16.3292 18.5966 16.5093L15.2809 19.859C15.014 20.1286 14.8922 20.5171 14.9552 20.8979L15.7379 25.6277C15.8437 26.2666 15.4297 26.8733 14.8132 26.9829C14.5677 27.0265 14.3152 26.9851 14.0948 26.865L9.9963 24.6318C9.66638 24.4521 9.27224 24.4521 8.94233 24.6318ZM7.87207 23.452C8.86874 22.9006 10.07 22.9006 11.0667 23.452L14.0844 25.1218L13.4846 21.4414C13.3067 20.3501 13.6517 19.2327 14.4205 18.444L17.0449 15.7516L13.5025 15.2099C12.3936 15.0403 11.4495 14.3184 10.9705 13.2969L9.46939 10.0957L7.96825 13.2969C7.48926 14.3184 6.54518 15.0403 5.4363 15.2099L1.89388 15.7516L4.51828 18.444C5.28707 19.2327 5.63203 20.3501 5.45419 21.4414L4.85442 25.1218L7.87207 23.452Z" fill="url(#paint1_linear_8592_14205)"/>
<path fill-rule="evenodd" clip-rule="evenodd" d="M48.0029 24.6318L43.9044 26.865C43.3508 27.1666 42.6661 26.946 42.375 26.3723C42.2591 26.1438 42.2191 25.8821 42.2612 25.6277L43.044 20.8979C43.107 20.5171 42.9852 20.1286 42.7183 19.859L39.4025 16.5093C38.9547 16.0569 38.9455 15.3138 39.3821 14.8496C39.5559 14.6648 39.7837 14.5445 40.0302 14.5074L44.6124 13.8173C44.9813 13.7618 45.3001 13.5217 45.4651 13.1752L47.5143 8.87192C47.7911 8.29065 48.4702 8.05199 49.0311 8.33887C49.2544 8.4531 49.4352 8.64046 49.5454 8.87192L51.5946 13.1752C51.7596 13.5217 52.0785 13.7618 52.4473 13.8173L57.0295 14.5074C57.6485 14.6006 58.0773 15.1962 57.9874 15.8376C57.9516 16.0931 57.8355 16.3292 57.6572 16.5093L54.3414 19.859C54.0745 20.1286 53.9527 20.5171 54.0158 20.8979L54.7985 25.6277C54.9042 26.2666 54.4902 26.8733 53.8738 26.9829C53.6283 27.0265 53.3758 26.9851 53.1553 26.865L49.0568 24.6318C48.7269 24.4521 48.3328 24.4521 48.0029 24.6318ZM46.9326 23.452C47.9293 22.9006 49.1306 22.9006 50.1273 23.452L53.1449 25.1218L52.5451 21.4414C52.3673 20.3501 52.7123 19.2327 53.481 18.444L56.1054 15.7516L52.563 15.2099C51.4541 15.0403 50.5101 14.3184 50.0311 13.2969L48.5299 10.0957L47.0288 13.2969C46.5498 14.3184 45.6057 15.0403 44.4968 15.2099L40.9544 15.7516L43.5788 18.444C44.3476 19.2327 44.6926 20.3501 44.5147 21.4414L43.915 25.1218L46.9326 23.452Z" fill="url(#paint2_linear_8592_14205)"/>
<defs>
<linearGradient id="paint0_linear_8592_14205" x1="46.3161" y1="-4.73873" x2="2.55552" y2="35.1471" gradientUnits="userSpaceOnUse">
<stop stop-color="#FF4C1F"/>
<stop offset="1" stop-color="#FF1F62"/>
</linearGradient>
<linearGradient id="paint1_linear_8592_14205" x1="22.8482" y1="4.42642" x2="-12.1603" y2="36.3351" gradientUnits="userSpaceOnUse">
<stop stop-color="#FF4C1F"/>
<stop offset="1" stop-color="#FF1F62"/>
</linearGradient>
<linearGradient id="paint2_linear_8592_14205" x1="61.9087" y1="4.42642" x2="26.9003" y2="36.3351" gradientUnits="userSpaceOnUse">
<stop stop-color="#FF4C1F"/>
<stop offset="1" stop-color="#FF1F62"/>
</linearGradient>
</defs>
</svg>
